<?xml version="1.0" standalone="no"?>
<!DOCTYPE svg PUBLIC "-//W3C//DTD SVG 20010904//EN"
 "http://www.w3.org/TR/2001/REC-SVG-20010904/DTD/svg10.dtd">
<svg version="1.0" xmlns="http://www.w3.org/2000/svg"
 width="96.000000pt" height="96.000000pt" viewBox="0 0 96.000000 96.000000"
 preserveAspectRatio="xMidYMid meet">
<metadata>
Created by potrace 1.14, written by Peter Selinger 2001-2017
</metadata>
<g transform="translate(0.000000,96.000000) scale(0.100000,-0.100000)"
fill="#000000" stroke="none">
<path d="M20 653 c0 -100 3 -123 20 -150 11 -18 23 -33 28 -33 5 0 9 -57 9
-127 1 -175 0 -171 24 -184 17 -9 25 -8 37 5 13 12 16 41 15 153 0 138 0 138
28 171 29 32 29 35 29 157 0 120 -1 125 -21 125 -18 0 -20 -6 -19 -42 5 -116
1 -150 -17 -146 -15 3 -18 16 -19 88 -2 105 -1 100 -19 100 -17 0 -17 -2 -19
-110 -1 -63 -4 -75 -18 -78 -20 -4 -20 -5 -19 106 0 75 -1 82 -19 82 -19 0
-20 -7 -20 -117z"/>
<path d="M832 753 c-5 -10 -8 -143 -7 -296 1 -283 3 -298 40 -303 27 -4 35 31
36 158 2 92 7 136 20 173 36 96 20 207 -37 260 -32 30 -40 31 -52 8z"/>
<path d="M434 740 c-86 -27 -172 -113 -193 -194 -58 -229 168 -423 382 -328
214 96 214 409 1 503 -54 24 -144 33 -190 19z m79 -96 c12 -12 -6 -34 -28 -34
-30 0 -87 -40 -103 -73 -19 -40 -17 -101 5 -139 68 -116 243 -79 265 57 4 24
31 27 36 3 6 -30 -34 -104 -72 -133 -44 -33 -119 -44 -168 -25 -153 60 -160
266 -13 335 32 15 68 19 78 9z"/>
</g>
</svg>
